<svg width="255" height="170" viewBox="0 0 255 170" fill="none" xmlns="http://www.w3.org/2000/svg">
<g clip-path="url(#clip0_780_383)">
<path d="M140.755 33.157L137.406 22.6479L132.495 23.3784C131.825 22.4793 131.1 21.6363 130.374 20.8495L131.937 16.0727L122.17 11.0148L119.156 15.1173C118.096 14.9487 117.091 14.8925 116.031 14.8363L113.687 10.228L103.25 13.5999L103.975 18.714C103.138 19.3322 102.301 20.0065 101.576 20.7371L96.7201 19.1636L91.6971 28.9983L95.7155 31.9768C95.548 33.0446 95.4364 34.1685 95.4364 35.2925L91.0273 37.5404L94.376 48.0495L99.1757 47.3189C99.8455 48.2743 100.571 49.1735 101.408 50.0165L99.9571 54.6247L109.724 59.6826L112.515 55.8611C113.687 56.0859 114.859 56.1983 116.086 56.1983L118.207 60.4132L128.644 57.0413L127.974 52.3768C128.979 51.6462 129.872 50.8594 130.709 50.0165L135.174 51.4776L140.197 41.6429L136.346 38.7768C136.513 37.6528 136.625 36.4727 136.625 35.2925L140.755 33.157ZM119.547 47.0379C113.24 49.0611 106.543 45.5768 104.534 39.2264C102.524 32.876 105.985 26.1322 112.291 24.109C118.598 22.0859 125.295 25.5702 127.304 31.9206C129.314 38.2148 125.853 45.0148 119.547 47.0379Z" fill="#00199F"/>
<path d="M131.881 33.9437L129.705 27.1437L126.523 27.5933C126.077 27.0313 125.63 26.4693 125.128 25.9635L126.133 22.8726L119.882 19.6693L117.928 22.3106C117.259 22.1982 116.589 22.142 115.919 22.142L114.412 19.2197L107.715 21.4115L108.217 24.671C107.659 25.0644 107.157 25.5139 106.655 25.9635L103.529 24.952L100.292 31.2462L102.859 33.1569C102.748 33.8313 102.692 34.5619 102.692 35.2925L99.8457 36.7536L102.022 43.5536L105.092 43.104C105.538 43.7222 105.985 44.2842 106.543 44.8462L105.594 47.8247L111.845 51.0842L113.631 48.6115C114.412 48.7239 115.138 48.8363 115.919 48.8363L117.315 51.5338L124.068 49.3421L123.621 46.3635C124.235 45.9139 124.849 45.4082 125.351 44.8462L128.253 45.8016L131.49 39.5073L129.035 37.6528C129.146 36.9222 129.202 36.1916 129.202 35.4049L131.881 33.9437ZM118.207 42.8792C114.189 44.1718 109.836 41.9239 108.552 37.8776C107.269 33.8313 109.501 29.4478 113.519 28.1553C117.538 26.8627 121.891 29.1106 123.175 33.1569C124.514 37.2032 122.282 41.5867 118.207 42.8792Z" fill="#00199F"/>
<path d="M96.7758 50.0165V31.6397L88.6274 30.2909C88.0693 28.5488 87.3438 26.8628 86.5066 25.2331L91.3622 18.4331L78.4141 5.45124L71.5493 10.3967C69.9866 9.60992 68.3681 8.93554 66.6938 8.37355L65.2985 0H47.1042L45.7089 8.42975C44.0346 8.99174 42.416 9.66612 40.8533 10.4529L33.9886 5.45124L21.0963 18.4331L25.9518 25.2331C25.1147 26.8628 24.3891 28.5488 23.831 30.2909L15.6826 31.6397V50.0165L23.6078 51.3091C24.1659 53.1636 24.8914 54.962 25.7844 56.7041L21.1521 63.2231L34.0444 76.205L40.4068 71.5967C42.137 72.5521 43.9787 73.2827 45.9321 73.9008L47.2158 81.6562H65.2985L66.5822 73.9008C68.4797 73.2827 70.3215 72.4959 72.1074 71.5967L78.4699 76.205L91.3622 63.2231L86.7299 56.7041C87.567 55.0182 88.2926 53.2198 88.9065 51.3091L96.7758 50.0165ZM56.2013 61.1438C45.2066 61.1438 36.3326 52.2083 36.3326 41.1372C36.3326 30.0661 45.2066 21.1306 56.2013 21.1306C67.1961 21.1306 76.07 30.0661 76.07 41.1372C76.07 52.2083 67.1961 61.1438 56.2013 61.1438Z" fill="#00199F"/>
<path d="M56.2013 66.7074C42.0254 66.7074 30.5283 55.1305 30.5283 40.8561C30.5283 26.5817 42.0254 15.0049 56.2013 15.0049C70.3773 15.0049 81.8744 26.5817 81.8744 40.8561C81.8744 55.0743 70.3773 66.7074 56.2013 66.7074ZM56.2013 23.4346C46.6577 23.4346 38.9 31.2462 38.9 40.8561C38.9 50.466 46.6577 58.2776 56.2013 58.2776C65.745 58.2776 73.5027 50.466 73.5027 40.8561C73.5027 31.2462 65.745 23.4346 56.2013 23.4346Z" fill="#00199F"/>
<path d="M227.485 53.7818V39.957L221.346 38.9454C220.899 37.5967 220.397 36.3603 219.727 35.1239L223.355 30.0099L213.644 20.2314L208.453 23.9967C207.281 23.3785 206.054 22.8727 204.77 22.4793L203.71 16.1289H189.98L188.92 22.4793C187.636 22.8727 186.408 23.3785 185.236 23.9967L180.046 20.2314L170.335 30.0099L173.962 35.1239C173.348 36.3603 172.79 37.5967 172.344 38.9454L166.205 39.957V53.7818L172.176 54.7934C172.623 56.1983 173.181 57.5471 173.795 58.8396L170.279 63.7289L179.99 73.5074L184.79 70.0231C186.129 70.6975 187.524 71.3157 188.92 71.7653L189.868 77.6099H203.598L204.547 71.7653C205.998 71.3157 207.393 70.6975 208.677 70.0231L213.476 73.5074L223.188 63.7289L219.671 58.8396C220.341 57.5471 220.843 56.1983 221.29 54.7934L227.485 53.7818ZM196.901 62.2115C188.641 62.2115 181.943 55.4677 181.943 47.1504C181.943 38.833 188.641 32.033 196.901 32.033C205.161 32.033 211.858 38.7768 211.858 47.0942C211.858 55.4115 205.161 62.2115 196.901 62.2115Z" fill="#00199F"/>
<path d="M196.901 66.3703C186.241 66.3703 177.534 57.6034 177.534 46.8695C177.534 36.1356 186.241 27.3687 196.901 27.3687C207.56 27.3687 216.267 36.1356 216.267 46.8695C216.267 57.6034 207.616 66.3703 196.901 66.3703ZM196.901 33.7191C189.701 33.7191 183.841 39.6199 183.841 46.8695C183.841 54.1191 189.701 60.0199 196.901 60.0199C204.1 60.0199 209.96 54.1191 209.96 46.8695C209.96 39.6199 204.1 33.7191 196.901 33.7191Z" fill="#00199F"/>
<path d="M40.4071 143.193C40.8536 144.036 41.3559 144.823 41.914 145.554C46.3231 151.342 54.8063 153.478 61.392 150.612C61.8385 150.443 62.2292 150.218 62.6199 149.993C63.2896 149.6 63.9035 149.207 64.4616 148.757C69.9869 144.486 71.4938 136.955 70.6008 129.65C70.4892 128.638 70.3218 127.57 70.0985 126.559C69.1497 122.063 67.4196 117.848 65.1872 114.757C64.9639 114.42 64.6849 114.083 64.4616 113.746C63.9593 113.071 63.4012 112.397 62.8431 111.779C61.0572 109.755 59.1596 107.845 57.4295 105.765C56.983 105.203 56.5365 104.641 56.1458 104.079C55.1412 102.675 54.304 101.213 53.6901 99.6398C52.6855 96.9423 52.4065 94.0762 52.1832 91.21C52.0716 90.0861 52.0158 89.0183 51.9042 87.8943C51.7926 86.7142 51.5693 85.5902 51.2903 84.41C50.6763 81.8811 49.5601 79.5208 48.2207 77.3291C47.7742 76.5985 47.3277 75.9241 46.8254 75.2497C46.2673 74.5191 45.7092 73.7886 45.1511 73.058C42.3605 69.6861 39.1793 66.6514 35.6632 64.0663C35.1051 63.6167 34.4912 63.2233 33.8773 62.8299C32.0355 61.5935 30.1379 60.4696 28.1845 59.5142C27.5148 59.177 26.7893 58.8398 26.0637 58.5026C23.5522 57.3787 20.8733 56.4233 18.1944 55.6927C17.3014 55.4679 16.2968 55.2993 15.348 55.2993C15.2922 55.2993 15.2364 55.2993 15.1806 55.2993C14.3434 55.3555 13.7853 55.9175 13.6179 56.5919C13.5063 57.0977 13.6179 57.6596 14.0644 58.1092C16.0178 60.1324 17.6363 62.4927 18.8641 65.0778C19.199 65.8084 19.5339 66.539 19.8129 67.2696C20.4826 69.0679 20.9291 70.9225 21.2082 72.777C21.3198 73.5076 21.3756 74.2944 21.4314 75.0249C21.4314 75.0811 21.4314 75.0811 21.4314 75.1373C21.5989 78.9026 20.9849 82.7803 20.5943 86.5456C20.5385 87.3886 20.4268 88.2877 20.4268 89.1307C20.2594 92.5026 20.5385 95.7621 21.9895 98.7968C22.4918 99.8084 23.1058 100.764 23.7755 101.663C24.4452 102.562 25.2266 103.405 26.0079 104.248C28.1845 106.496 30.5286 108.632 32.2587 111.273C33.5424 113.24 34.4354 115.375 35.0493 117.623C35.2725 118.466 35.4958 119.309 35.6632 120.152C36.2213 122.85 36.5004 125.603 36.7794 128.357C36.8352 129.144 36.9469 129.931 37.0585 130.774C37.4492 134.314 38.0073 137.742 39.2351 140.946C39.6258 141.62 39.9606 142.407 40.4071 143.193Z" fill="#4D6FDD"/>
<path d="M40.4071 143.193C42.7512 143.249 45.151 143.305 47.4951 143.418L54.9737 143.643C56.5364 143.699 58.3224 143.924 59.9409 143.867C60.6665 146.059 61.1688 148.307 61.392 150.611C61.8385 150.443 62.2292 150.218 62.6198 149.993C63.2896 149.6 63.9035 149.206 64.4616 148.757C64.1267 146.733 63.6244 144.767 62.9547 142.8C63.9035 141.9 64.4616 140.495 65.0755 139.371C66.3034 137.236 67.4754 135.157 68.6474 133.021C69.2613 131.897 69.9311 130.773 70.545 129.593C70.4334 128.581 70.2659 127.514 70.0427 126.502C69.0939 128.076 68.2009 129.649 67.3079 131.223C66.1359 133.246 64.9639 135.213 63.8477 137.236C63.2896 138.191 62.7315 139.147 62.1733 140.102C62.1175 140.214 62.0617 140.271 62.0059 140.327C61.0013 137.798 59.7177 135.381 58.3782 133.077C57.8759 132.178 57.3178 131.335 56.7597 130.492C57.4852 129.537 57.8201 128.132 58.2666 127.233C59.2154 125.153 60.1642 123.13 61.0571 121.051C62.0617 118.915 63.0105 116.724 63.9593 114.532C64.0709 114.251 64.2384 113.97 64.35 113.689C63.8477 113.014 63.2896 112.34 62.7315 111.722C61.5036 114.138 60.5548 116.724 59.4386 119.084C58.6015 120.938 57.7085 122.793 56.8713 124.704C56.4248 125.715 55.9783 126.671 55.5319 127.626C55.4202 127.907 55.3086 128.076 55.2528 128.3C53.4669 125.659 51.5693 123.018 49.7833 120.376C50.5089 119.477 51.0112 118.241 51.5135 117.286C52.5181 115.431 53.5227 113.576 54.4714 111.722C55.476 109.755 56.4248 107.732 57.3736 105.709C56.9271 105.147 56.4806 104.585 56.09 104.023C56.0341 104.079 56.0342 104.135 55.9783 104.191C54.9737 106.158 53.9133 108.181 52.8529 110.148C51.8483 112.003 50.8437 113.857 49.8391 115.712C49.3927 116.555 48.9462 117.567 48.3881 118.297C46.4905 115.431 44.7045 112.509 43.3093 109.418C42.6395 107.957 42.0814 106.495 41.6349 105.034C42.6953 103.967 43.5883 102.449 44.4255 101.438C45.8208 99.6954 47.1602 97.9533 48.4997 96.2111C49.7275 94.5814 51.0112 92.8954 52.1832 91.2095C52.0716 90.0855 52.0158 89.0177 51.9041 87.8938C50.2298 90.0293 48.6113 92.221 46.9928 94.3566C45.7649 95.9301 44.5371 97.5599 43.3093 99.1334C42.6395 99.9764 41.9698 100.763 41.3559 101.606C41.2443 101.775 41.0768 102 40.9094 102.224C40.4629 100.257 40.128 98.2905 39.9048 96.2673C39.7932 95.2558 39.6816 94.3004 39.6257 93.2888C40.128 92.783 40.5187 92.1087 40.8536 91.4905C41.4675 90.4789 42.0814 89.4111 42.6953 88.3996C43.7558 86.545 44.7603 84.6905 45.7091 82.8359C46.6021 81.0376 47.4951 79.2392 48.2764 77.3847C47.8299 76.6541 47.3835 75.9797 46.8812 75.3053C46.8254 75.3615 46.8254 75.4739 46.7695 75.5301C45.8208 77.4409 44.9278 79.3516 43.9232 81.2062C42.9744 83.0045 42.0256 84.7467 41.0768 86.4888C40.5745 87.388 40.0722 88.231 39.5699 89.0739C39.4583 89.2425 39.3467 89.4673 39.2351 89.6921C38.956 87.6128 38.6212 85.5334 38.0072 83.4541C37.0584 79.9698 35.6632 76.6541 33.933 73.507C33.9888 73.2822 34.0447 73.0574 34.1005 72.8326C34.4353 71.1467 34.7144 69.4045 34.9934 67.7186C35.1609 66.5384 35.4399 65.3582 35.6632 64.1219C35.1051 63.6723 34.4911 63.2789 33.8772 62.8855C33.7098 63.8409 33.5424 64.7401 33.3749 65.6392C33.0401 67.1566 32.761 68.6177 32.4261 70.1351C32.3703 70.3037 32.3703 70.5847 32.3145 70.9781C30.9192 68.8425 29.3565 66.8194 27.6822 64.9649C28.0729 63.6161 28.0171 61.8739 28.1287 60.8624C28.1845 60.469 28.1845 60.0756 28.2403 59.626C27.5706 59.2888 26.8451 58.9516 26.1195 58.6144C26.1195 59.1202 26.1195 59.5698 26.0637 60.0756C26.0079 61.031 25.8963 61.9863 25.7846 62.9417C23.608 60.8062 21.2082 58.8954 18.585 57.2657C17.5804 56.6475 16.52 56.0293 15.4596 55.4111C15.4038 55.4111 15.348 55.4111 15.2922 55.4111C14.455 55.4673 13.8969 56.0293 13.7295 56.7037C13.8411 56.7599 13.8969 56.8161 14.0085 56.8161C15.7387 57.7715 17.413 58.8954 18.9757 60.1318C20.8175 61.5368 22.6034 63.1103 24.2219 64.7963C22.4918 64.9649 20.7059 65.0772 18.9757 65.1896C19.3106 65.9202 19.6454 66.6508 19.9245 67.3814C21.1523 67.269 22.3244 67.1566 23.4964 67.0442C24.2778 66.988 25.2823 66.988 26.0637 66.7632C26.6218 67.3814 27.1241 67.9996 27.6264 68.6177C28.6868 69.9665 29.6356 71.3715 30.5286 72.8888C30.4728 72.8888 30.4169 72.8888 30.4169 72.8888C27.4032 72.664 24.3336 72.664 21.264 72.8888C21.3756 73.6194 21.4314 74.4062 21.4872 75.1368C21.4872 75.1929 21.4872 75.1929 21.4872 75.2491C22.3244 75.1929 23.1057 75.1368 23.9429 75.0806C25.6172 75.0244 27.2915 74.9682 29.0217 75.0806C29.8588 75.1368 30.9192 75.3615 31.868 75.2491C34.0447 79.464 35.6074 84.0161 36.2771 88.6806C36.3887 89.5235 36.5003 90.4227 36.5561 91.2657C35.9422 91.0971 35.3283 90.8161 34.8818 90.7037C33.8214 90.4227 32.8168 90.1417 31.7564 89.8045C29.803 89.2425 27.7938 88.6806 25.8405 88.1186C24.1103 87.6128 22.436 87.107 20.7059 86.6012C20.65 87.4442 20.5384 88.3434 20.5384 89.1863C22.7709 89.8045 25.0591 90.3665 27.2357 90.9847C29.524 91.6029 31.8122 92.2773 34.1005 92.8954C34.8818 93.1202 35.8306 93.5136 36.8352 93.7384C37.0584 96.3235 37.2259 98.9649 37.6724 101.494C37.8398 102.281 38.0072 103.067 38.1747 103.854C37.5607 103.742 36.891 103.517 36.5003 103.461C35.4957 103.292 34.4911 103.124 33.4865 102.955C31.589 102.618 29.6914 102.393 27.7938 102.168C26.5102 102 25.2265 101.887 23.8871 101.775C24.5568 102.674 25.3382 103.517 26.1195 104.36C27.1799 104.472 28.2961 104.585 29.3565 104.753C31.4774 105.034 33.5424 105.371 35.6632 105.765C36.612 105.933 37.784 106.383 38.9002 106.439C39.7932 109.137 40.9652 111.722 42.3047 114.195C43.1418 115.768 44.1464 117.398 45.151 118.971C41.8582 118.241 38.5095 117.847 35.1609 117.679C35.3841 118.522 35.6074 119.365 35.7748 120.208C36.1655 120.208 36.5003 120.264 36.891 120.264C39.0118 120.433 41.0768 120.714 43.1976 121.051C44.3697 121.276 45.7649 121.725 47.0486 121.781C48.7787 124.31 50.5647 126.839 52.2948 129.424C50.6763 129.368 49.1136 129.143 47.4951 129.087C45.4301 128.975 43.3651 128.862 41.3001 128.75C39.849 128.638 38.3421 128.581 36.891 128.469C36.9468 129.256 37.0584 130.043 37.1701 130.886C39.0118 130.998 40.8536 131.054 42.6953 131.166C45.0952 131.335 47.4951 131.447 49.8391 131.56C50.8995 131.616 52.0158 131.672 53.0762 131.728C53.2994 131.728 53.5227 131.785 53.7459 131.785C55.8109 134.988 57.7085 138.304 59.1037 141.732C54.6389 141.619 50.174 141.451 45.7649 141.338C43.6441 141.282 41.5233 141.114 39.3467 141.001C39.6257 141.619 39.9606 142.406 40.4071 143.193Z" fill="white"/>
<path d="M58.3783 137.967C58.155 141.732 56.9272 145.835 54.8622 149.319C54.5273 149.825 54.2483 150.331 53.8576 150.837C51.96 153.478 49.5602 155.613 46.658 156.737C38.7329 159.884 29.7473 159.997 22.1012 156.063C20.3711 155.164 18.5293 153.703 17.748 151.96C17.4689 151.342 17.3015 150.668 17.3573 149.994C17.3573 149.656 17.4689 149.319 17.5805 148.982C17.9154 148.139 18.5293 147.465 19.199 146.903C20.7059 145.61 22.6035 144.823 24.5569 144.655C17.9154 143.924 10.8832 142.07 6.64159 136.899C5.97186 136.056 5.35794 135.101 5.07888 134.033C4.96726 133.471 4.91145 132.909 5.07888 132.347C5.07888 132.235 5.13469 132.179 5.13469 132.066C5.58118 130.661 6.97645 129.706 8.42754 129.313C9.93443 128.919 11.5529 129.088 13.1157 129.313C6.58578 126.446 1.61861 120.265 0.223336 113.184C-0.167341 111.273 -0.11153 109.025 0.725634 107.339C1.00469 106.777 1.33955 106.271 1.84185 105.878C2.0651 105.709 2.23253 105.541 2.51158 105.428C4.40915 104.36 6.75321 104.866 8.7624 105.653C13.7854 107.508 18.3619 110.486 22.2128 114.251C21.5989 112.397 21.3757 110.318 22.0454 108.519C22.7151 106.665 24.3336 105.147 26.2312 104.866C26.287 104.866 26.3428 104.866 26.3428 104.866C27.1242 104.81 27.8497 104.866 28.5753 105.147C30.2496 105.709 31.7565 107.114 33.0401 108.463C37.0027 112.678 40.3514 117.511 42.9745 122.681C43.4768 121.332 43.9791 119.984 44.8721 118.916C45.3744 118.354 45.9883 117.904 46.658 117.623C47.2719 117.398 47.8858 117.342 48.4998 117.455C48.5556 117.455 48.5556 117.455 48.6114 117.455C49.3927 117.679 50.0625 118.185 50.6206 118.747C55.8668 123.637 58.769 130.83 58.3783 137.967Z" fill="#00199F"/>
<path d="M47.2719 145.441C49.7276 146.846 52.239 148.139 54.8064 149.319C56.7597 150.218 58.7689 151.061 60.7781 151.792C61.8385 152.185 61.3362 153.927 60.2758 153.534C58.0992 152.691 55.9226 151.792 53.8018 150.836C50.9554 149.488 48.1649 148.027 45.4301 146.453C43.5884 147.914 41.5234 149.151 39.4025 150.162C32.6494 153.253 24.8917 153.984 17.7479 152.017C17.4689 151.398 17.3014 150.724 17.3572 150.05C26.2312 152.747 36.3329 151.117 43.8116 145.498C38.677 142.407 33.8215 138.866 29.1891 135.101C21.3756 137.911 12.6133 137.461 5.07884 134.033C4.96721 133.471 4.9114 132.909 5.07884 132.347C5.07884 132.235 5.13465 132.179 5.13465 132.066C12.0552 135.438 20.2036 136 27.5706 133.752C25.2824 131.841 23.0499 129.875 20.8733 127.851C13.8411 121.389 7.25546 114.364 0.725586 107.339C1.00464 106.777 1.33951 106.271 1.8418 105.878C5.13465 109.418 8.42749 112.959 11.832 116.443C18.0828 122.85 24.5568 129.032 31.5332 134.595C32.6494 129.369 31.7564 123.861 31.0309 118.635C30.3054 113.746 28.8543 109.081 26.3986 104.866C27.18 104.81 27.9055 104.866 28.631 105.147C29.0775 105.99 29.524 106.889 29.9147 107.732C31.9797 112.453 32.7052 117.398 33.375 122.456C33.9331 126.896 34.2679 131.448 33.0959 135.832C33.8215 136.394 34.547 136.956 35.2725 137.461C38.677 139.99 42.1931 142.351 45.8208 144.486C46.8254 142.407 47.6067 140.159 48.1649 137.911C49.7834 131.167 49.2811 123.974 46.7138 117.567C47.3277 117.342 47.9416 117.286 48.5555 117.398C48.723 117.792 48.8346 118.241 49.002 118.635C51.9042 127.458 51.2903 137.236 47.2719 145.441Z" fill="white"/>
<path d="M215.319 145.216C214.816 146.059 214.258 146.846 213.644 147.577C208.844 153.365 200.026 155.22 193.329 151.96C192.883 151.735 192.492 151.51 192.045 151.286C191.376 150.892 190.762 150.443 190.204 149.937C184.678 145.272 183.451 137.461 184.623 129.987C184.79 128.919 185.013 127.851 185.292 126.839C186.464 122.287 188.418 117.96 190.818 114.813C191.097 114.476 191.32 114.139 191.599 113.801C192.157 113.127 192.771 112.509 193.329 111.834C195.227 109.811 197.292 107.901 199.133 105.821C199.636 105.259 200.082 104.697 200.529 104.135C201.589 102.73 202.538 101.269 203.263 99.6394C204.435 96.8857 204.77 93.9634 205.161 90.9848C205.273 89.8609 205.44 88.6807 205.607 87.5568C205.775 86.3766 206.054 85.1402 206.389 84.0163C207.114 81.4311 208.342 79.0708 209.849 76.8229C210.351 76.0923 210.854 75.4179 211.356 74.7435C211.914 74.0129 212.528 73.2824 213.198 72.5518C216.212 69.1799 219.616 66.2014 223.355 63.6725C223.969 63.2791 224.583 62.8295 225.253 62.4361C227.206 61.2559 229.215 60.1882 231.28 59.2328C232.006 58.8956 232.732 58.5584 233.513 58.2774C236.192 57.2096 238.927 56.3105 241.717 55.6923C242.666 55.4675 243.67 55.3551 244.675 55.4113C244.731 55.4113 244.787 55.4113 244.843 55.4113C245.68 55.4675 246.238 56.0857 246.405 56.8163C246.517 57.3782 246.349 57.9402 245.903 58.3898C243.782 60.4129 242.052 62.7733 240.657 65.3584C240.266 66.089 239.931 66.8196 239.596 67.6063C238.815 69.4047 238.257 71.3154 237.922 73.2824C237.81 74.0691 237.699 74.7997 237.643 75.5865C237.643 75.6427 237.643 75.6427 237.643 75.6989C237.308 79.5766 237.81 83.5667 238.034 87.5005C238.089 88.3997 238.089 89.2989 238.145 90.1419C238.145 93.6262 237.755 96.9981 236.136 100.089C235.578 101.157 234.908 102.112 234.183 103.011C233.457 103.91 232.62 104.753 231.783 105.54C229.439 107.788 226.927 109.924 225.03 112.509C223.634 114.476 222.63 116.667 221.904 118.915C221.625 119.758 221.402 120.601 221.179 121.501C220.509 124.254 220.118 127.064 219.728 129.93C219.616 130.773 219.504 131.56 219.337 132.403C218.779 136.056 218.053 139.596 216.658 142.8C216.156 143.699 215.765 144.486 215.319 145.216Z" fill="#5F5EA5"/>
<path d="M215.319 145.216C212.863 145.216 210.407 145.16 208.007 145.16L200.25 145.047C198.631 145.047 196.789 145.216 195.115 145.104C194.278 147.352 193.664 149.656 193.329 152.016C192.883 151.791 192.492 151.566 192.045 151.342C191.376 150.948 190.762 150.499 190.204 149.993C190.594 147.914 191.208 145.89 191.99 143.924C191.041 142.968 190.539 141.507 189.925 140.327C188.753 138.079 187.636 135.887 186.464 133.639C185.85 132.459 185.236 131.223 184.623 130.043C184.79 128.975 185.013 127.907 185.292 126.895C186.185 128.581 187.078 130.211 187.971 131.897C189.087 134.033 190.204 136.112 191.32 138.247C191.878 139.259 192.38 140.271 192.883 141.282C192.938 141.395 192.994 141.451 193.05 141.563C194.222 138.978 195.617 136.562 197.124 134.201C197.682 133.302 198.296 132.459 198.854 131.616C198.185 130.605 197.85 129.143 197.459 128.188C196.566 125.996 195.673 123.861 194.78 121.669C193.831 119.421 192.938 117.117 192.045 114.813C191.934 114.532 191.822 114.195 191.655 113.914C192.213 113.239 192.827 112.621 193.385 111.947C194.557 114.476 195.45 117.229 196.454 119.646C197.292 121.613 198.073 123.58 198.854 125.547C199.301 126.558 199.692 127.626 200.138 128.638C200.25 128.919 200.305 129.143 200.417 129.368C202.37 126.671 204.435 124.086 206.389 121.444C205.663 120.489 205.217 119.14 204.714 118.185C203.766 116.218 202.817 114.307 201.924 112.284C200.975 110.205 200.082 108.069 199.189 105.99C199.692 105.428 200.138 104.866 200.584 104.304C200.584 104.36 200.64 104.416 200.64 104.472C201.645 106.552 202.594 108.631 203.598 110.71C204.547 112.677 205.496 114.644 206.5 116.555C206.947 117.398 207.338 118.466 207.896 119.309C209.961 116.443 211.914 113.52 213.533 110.317C214.258 108.856 214.928 107.395 215.43 105.877C214.37 104.753 213.533 103.18 212.695 102.056C211.356 100.201 210.017 98.3467 208.677 96.4921C207.449 94.75 206.221 93.0078 205.105 91.1533C205.217 90.0293 205.384 88.8491 205.552 87.7252C207.226 89.9731 208.733 92.3334 210.351 94.5814C211.523 96.2673 212.751 97.9533 213.979 99.6392C214.649 100.538 215.263 101.381 215.932 102.281C216.044 102.449 216.212 102.674 216.379 102.955C216.937 100.988 217.328 98.9086 217.607 96.8293C217.774 95.8177 217.886 94.8062 218.053 93.7946C217.551 93.2888 217.216 92.5582 216.881 91.8839C216.267 90.8161 215.709 89.6921 215.151 88.5682C214.147 86.6574 213.198 84.6905 212.305 82.7235C211.468 80.8128 210.63 78.9582 209.849 76.9913C210.351 76.2607 210.854 75.5863 211.356 74.912C211.412 74.9682 211.412 75.0805 211.468 75.1367C212.361 77.1037 213.198 79.1268 214.147 81.0938C215.04 82.9483 215.932 84.8591 216.881 86.6574C217.328 87.5566 217.83 88.512 218.332 89.4111C218.444 89.5797 218.556 89.8045 218.667 90.0293C219.058 87.8938 219.504 85.7582 220.174 83.6227C221.29 80.0822 222.853 76.7103 224.806 73.507C224.751 73.2822 224.695 73.0574 224.639 72.7764C224.36 71.0343 224.137 69.2359 223.913 67.4376C223.746 66.2574 223.523 64.9649 223.355 63.6723C223.969 63.2789 224.583 62.8293 225.253 62.4359C225.42 63.3913 225.532 64.3467 225.699 65.302C225.978 66.8756 226.257 68.3929 226.481 69.9665C226.481 70.1351 226.537 70.4723 226.537 70.8095C228.043 68.6739 229.718 66.6508 231.56 64.7401C231.225 63.3351 231.336 61.5368 231.28 60.469C231.28 60.0756 231.28 59.626 231.225 59.1764C231.95 58.8392 232.676 58.502 233.457 58.221C233.457 58.7268 233.457 59.2326 233.457 59.7384C233.513 60.75 233.569 61.7053 233.625 62.7169C235.969 60.5814 238.536 58.7268 241.271 57.1533C242.331 56.5913 243.447 55.9731 244.563 55.4111C244.619 55.4111 244.675 55.4111 244.731 55.4111C245.568 55.4673 246.126 56.0855 246.294 56.8161C246.182 56.8723 246.126 56.9285 246.015 56.9285C244.173 57.8839 242.443 58.9516 240.768 60.1318C238.815 61.5368 236.917 63.0541 235.131 64.7401C236.917 64.9648 238.759 65.1896 240.545 65.3582C240.154 66.0888 239.82 66.8194 239.485 67.6062C238.257 67.4376 237.029 67.269 235.801 67.1004C235.02 66.988 233.959 66.988 233.178 66.707C232.62 67.3252 232.062 67.9434 231.504 68.5615C230.332 69.9103 229.271 71.3715 228.323 72.8326C228.378 72.8326 228.434 72.8326 228.434 72.8326C231.56 72.7202 234.741 72.8326 237.866 73.226C237.755 74.0128 237.643 74.7434 237.587 75.5301C237.587 75.5863 237.587 75.5863 237.587 75.6425C236.75 75.5301 235.913 75.4177 235.076 75.3615C233.345 75.193 231.615 75.1367 229.829 75.1367C228.936 75.1367 227.82 75.3615 226.871 75.1929C224.416 79.4078 222.686 84.0723 221.793 88.9053C221.625 89.8045 221.514 90.7037 221.402 91.5467C222.016 91.3781 222.686 91.1533 223.132 91.0409C224.192 90.7599 225.309 90.5351 226.369 90.2541C228.434 89.7483 230.499 89.2425 232.564 88.7929C234.35 88.3434 236.136 87.8938 237.978 87.4442C238.034 88.3434 238.034 89.2425 238.089 90.0855C235.745 90.6475 233.401 91.0971 231.113 91.6591C228.713 92.221 226.313 92.783 223.913 93.345C223.132 93.5136 222.072 93.907 221.067 94.1318C220.732 96.8293 220.453 99.4706 219.895 102.112C219.728 102.955 219.504 103.742 219.281 104.528C219.951 104.416 220.621 104.247 221.011 104.191C222.072 104.023 223.076 103.91 224.137 103.798C226.09 103.573 228.099 103.348 230.053 103.18C231.392 103.067 232.732 102.955 234.127 102.899C233.401 103.798 232.564 104.641 231.727 105.428C230.611 105.484 229.495 105.596 228.323 105.709C226.146 105.933 223.969 106.214 221.793 106.495C220.788 106.664 219.56 107.057 218.444 107.057C217.439 109.811 216.1 112.452 214.649 114.925C213.7 116.555 212.64 118.128 211.523 119.758C214.928 119.14 218.388 118.859 221.848 118.859C221.569 119.702 221.346 120.545 221.123 121.444C220.732 121.444 220.342 121.444 220.007 121.444C217.83 121.5 215.653 121.725 213.477 122.006C212.249 122.175 210.798 122.624 209.458 122.568C207.617 125.097 205.607 127.626 203.766 130.211C205.44 130.211 207.114 130.043 208.733 130.043C210.854 129.986 212.975 129.986 215.151 129.93C216.658 129.874 218.165 129.874 219.728 129.818C219.616 130.661 219.504 131.447 219.337 132.29C217.439 132.29 215.486 132.29 213.588 132.347C211.133 132.403 208.621 132.459 206.166 132.459C205.049 132.459 203.933 132.515 202.817 132.515C202.594 132.515 202.37 132.515 202.147 132.571C199.859 135.831 197.794 139.147 196.231 142.631C200.864 142.687 205.44 142.687 210.017 142.743C212.193 142.743 214.426 142.687 216.658 142.687C216.156 143.699 215.765 144.485 215.319 145.216Z" fill="#F1F1FF"/>
<path d="M192.324 136.899C192.324 140.833 193.329 145.217 195.282 148.982C195.561 149.544 195.896 150.106 196.231 150.612C198.017 153.478 200.361 155.838 203.319 157.243C211.356 161.065 220.732 161.795 228.992 158.199C230.89 157.356 232.843 155.951 233.792 154.208C234.127 153.59 234.35 152.86 234.35 152.185C234.35 151.848 234.294 151.455 234.183 151.061C233.904 150.162 233.29 149.432 232.62 148.757C231.113 147.352 229.215 146.397 227.206 146.06C234.183 145.779 241.605 144.318 246.405 139.204C247.187 138.361 247.856 137.405 248.191 136.337C248.359 135.775 248.414 135.157 248.303 134.595C248.303 134.483 248.247 134.427 248.247 134.314C247.856 132.797 246.517 131.729 245.01 131.223C243.447 130.718 241.773 130.774 240.099 130.886C247.075 128.357 252.712 122.175 254.609 114.926C255.112 112.959 255.279 110.599 254.498 108.8C254.275 108.182 253.884 107.676 253.437 107.227C253.214 107.058 253.047 106.833 252.768 106.721C250.87 105.484 248.359 105.878 246.238 106.552C240.88 108.182 235.857 110.936 231.671 114.645C232.453 112.79 232.787 110.599 232.229 108.688C231.671 106.721 230.053 105.035 228.099 104.585C228.043 104.585 227.988 104.585 227.932 104.585C227.15 104.473 226.369 104.529 225.588 104.698C223.802 105.204 222.127 106.496 220.732 107.845C216.323 112.004 212.472 116.78 209.458 122.007C209.012 120.602 208.621 119.141 207.672 117.961C207.226 117.342 206.556 116.837 205.887 116.499C205.273 116.218 204.603 116.106 203.933 116.218C203.877 116.218 203.877 116.218 203.822 116.218C202.984 116.387 202.259 116.893 201.645 117.455C195.896 122.063 192.38 129.425 192.324 136.899Z" fill="#4D6FDD"/>
<path d="M203.431 145.442C200.752 146.734 198.073 147.914 195.282 148.982C193.162 149.769 191.041 150.556 188.864 151.174C187.692 151.511 188.139 153.365 189.311 153.028C191.655 152.298 193.943 151.511 196.231 150.612C199.301 149.432 202.315 148.083 205.273 146.622C207.114 148.251 209.124 149.713 211.3 150.893C218.109 154.602 226.202 155.838 233.792 154.265C234.127 153.646 234.35 152.916 234.35 152.242C224.918 154.489 214.481 152.073 207.059 145.722C212.584 142.856 217.886 139.484 222.965 135.888C230.89 139.316 240.099 139.484 248.191 136.394C248.359 135.832 248.414 135.213 248.303 134.651C248.303 134.539 248.247 134.483 248.247 134.37C240.768 137.405 232.285 137.518 224.751 134.595C227.262 132.741 229.718 130.83 232.118 128.919C239.875 122.625 247.242 115.769 254.498 108.856C254.275 108.238 253.884 107.732 253.437 107.283C249.754 110.767 246.07 114.251 242.331 117.623C235.41 123.918 228.267 129.931 220.621 135.27C219.783 129.762 221.067 124.03 222.183 118.635C223.244 113.577 225.085 108.8 227.932 104.585C227.15 104.473 226.369 104.529 225.588 104.698C225.03 105.541 224.527 106.44 224.081 107.339C221.625 112.116 220.509 117.23 219.504 122.456C218.667 127.065 217.997 131.785 218.89 136.45C218.109 136.956 217.328 137.518 216.491 138.023C212.807 140.44 208.956 142.688 205.049 144.655C204.101 142.407 203.431 140.046 203.04 137.63C201.812 130.493 202.817 123.018 205.887 116.499C205.273 116.218 204.603 116.106 203.933 116.218C203.766 116.668 203.542 117.061 203.375 117.511C199.803 126.334 199.747 136.562 203.431 145.442Z" fill="white"/>
<path d="M199.022 158.423H57.8201C54.9738 158.423 52.6855 156.119 52.6855 153.253V59.4017C52.6855 56.5356 54.9738 54.2314 57.8201 54.2314H199.022C201.868 54.2314 204.156 56.5356 204.156 59.4017V153.253C204.156 156.119 201.868 158.423 199.022 158.423Z" fill="#00199F"/>
<path d="M195.728 62.3242H61.001V154.939H195.728V62.3242Z" fill="white"/>
<path d="M223.523 153.478V158.76C223.523 161.177 221.402 163.144 218.834 163.144H37.9513C35.384 163.144 33.2632 161.177 33.2632 158.76V153.478C33.2632 151.061 35.384 149.094 37.9513 149.094H218.834C221.402 149.094 223.523 151.061 223.523 153.478Z" fill="#00199F"/>
<path d="M143.992 149.094V149.6C143.992 151.904 142.15 153.759 139.862 153.759H116.924C114.636 153.759 112.794 151.904 112.794 149.6V149.094H143.992Z" fill="#F1F1F1"/>
<path d="M210.719 124.762L205.224 127.643L210.171 137.213L215.666 134.333L210.719 124.762Z" fill="#00199F"/>
<g opacity="0.33">
<path opacity="0.33" d="M187.915 83.0615L195.059 127.627C192.771 127.458 190.483 126.952 188.306 126.109L181.944 86.7144C183.171 85.6466 184.567 84.7475 186.074 83.9607C186.743 83.6235 187.357 83.3425 187.915 83.0615Z" fill="white"/>
<path opacity="0.33" d="M205.998 83.2299L212.193 121.726C210.798 123.018 209.179 124.142 207.393 125.041C205.663 125.941 203.821 126.615 202.036 127.065L194.668 81.3754C198.575 81.0382 202.482 81.6564 205.998 83.2299Z" fill="white"/>
</g>
<path d="M221.737 91.4349C214.593 77.6101 197.682 72.215 183.897 79.3522C183.841 79.3522 183.841 79.4084 183.785 79.4084C170 86.6018 164.642 103.742 171.842 117.623C178.986 131.504 196.008 136.899 209.793 129.65C209.849 129.65 209.849 129.594 209.905 129.594C223.579 122.288 228.881 105.26 221.737 91.4349ZM212.193 121.726C210.798 123.018 209.179 124.142 207.393 125.041C205.663 125.941 203.822 126.615 202.036 127.065C199.747 127.627 197.403 127.795 195.115 127.627C192.827 127.458 190.539 126.952 188.362 126.109C183.339 124.142 178.986 120.377 176.307 115.207C171.228 105.372 173.851 93.5142 181.999 86.658C183.227 85.5902 184.623 84.6911 186.129 83.9043C186.743 83.5671 187.301 83.2861 187.915 83.0613C190.092 82.1621 192.38 81.6001 194.669 81.3754C198.575 81.0382 202.482 81.6563 205.998 83.2299C210.63 85.253 214.649 88.9059 217.216 93.7952C222.127 103.349 219.783 114.813 212.193 121.726Z" fill="#E9A82F"/>
<path opacity="0.13" d="M206.724 123.468C206.668 123.468 206.668 123.524 206.612 123.524C196.175 128.975 183.283 124.929 177.814 114.364C172.4 103.855 176.418 90.873 186.911 85.3655C186.966 85.3655 186.966 85.3093 187.022 85.3093C197.459 79.9143 210.295 84.0168 215.709 94.4697C221.123 105.035 217.104 117.961 206.724 123.468Z" fill="white"/>
<path d="M217.83 132.347L232.731 161.233C234.238 164.155 233.178 167.752 230.332 169.326C227.429 170.899 223.746 169.775 222.239 166.797L207.282 137.855C206.612 136.506 207.114 134.876 208.454 134.146L214.146 131.167C215.486 130.493 217.104 130.998 217.83 132.347Z" fill="#E9A82F"/>
<path d="M177.869 114.42C183.283 124.929 196.175 129.031 206.668 123.58C206.724 123.58 206.724 123.524 206.78 123.524L209.905 129.593C209.849 129.593 209.849 129.65 209.793 129.65C196.008 136.843 179.041 131.504 171.842 117.623C164.698 103.742 170 86.6578 183.785 79.4083C183.841 79.4083 183.841 79.3521 183.897 79.3521L187.022 85.4215C186.967 85.4215 186.967 85.4777 186.911 85.4777C176.474 90.9289 172.4 103.855 177.869 114.42Z" fill="#EFC45E"/>
<path d="M208.454 134.146L211.412 132.572L230.387 169.27C227.485 170.843 223.802 169.719 222.295 166.741L207.338 137.799C206.556 136.506 207.114 134.876 208.454 134.146Z" fill="#EFC45E"/>
<path d="M217.216 93.7952C214.705 88.906 210.686 85.3093 205.998 83.2299C202.482 81.6564 198.575 81.0382 194.669 81.3754C192.38 81.6002 190.148 82.1622 187.915 83.0613C187.302 83.3423 186.688 83.6233 186.129 83.9043C184.623 84.6911 183.283 85.5903 181.999 86.658C173.851 93.458 171.228 105.316 176.307 115.207C178.986 120.377 183.339 124.142 188.362 126.109C190.539 126.952 192.771 127.458 195.115 127.627C197.403 127.795 199.747 127.627 202.036 127.065C203.877 126.615 205.663 125.941 207.393 125.041C209.179 124.142 210.742 122.962 212.193 121.726C219.783 114.813 222.128 103.349 217.216 93.7952ZM206.724 123.468C206.668 123.468 206.668 123.524 206.612 123.524C196.175 128.975 183.283 124.929 177.814 114.364C172.4 103.855 176.418 90.8729 186.911 85.3655C186.967 85.3655 186.967 85.3093 187.022 85.3093C197.459 79.9142 210.296 84.0167 215.709 94.4696C221.123 105.035 217.105 117.961 206.724 123.468Z" fill="#E79B24"/>
<path d="M103.291 109.621H107.319V115.31H103.291V123H96.2354V115.31H81.6602L81.3428 110.866L96.1621 87.4531H103.291V109.621ZM88.374 109.621H96.2354V97.0723L95.7715 97.8779L88.374 109.621ZM135.054 108.303C135.054 113.218 134.036 116.978 132.002 119.582C129.967 122.186 126.989 123.488 123.066 123.488C119.193 123.488 116.23 122.211 114.18 119.655C112.129 117.1 111.079 113.438 111.03 108.669V102.126C111.03 97.1618 112.056 93.3939 114.106 90.8223C116.174 88.2507 119.144 86.9648 123.018 86.9648C126.891 86.9648 129.854 88.2425 131.904 90.7979C133.955 93.3369 135.005 96.9909 135.054 101.76V108.303ZM127.998 101.125C127.998 98.179 127.591 96.0387 126.777 94.7041C125.98 93.3532 124.727 92.6777 123.018 92.6777C121.357 92.6777 120.129 93.3206 119.331 94.6064C118.55 95.876 118.135 97.8698 118.086 100.588V109.23C118.086 112.128 118.477 114.284 119.258 115.7C120.055 117.1 121.325 117.8 123.066 117.8C124.792 117.8 126.037 117.124 126.802 115.773C127.567 114.423 127.965 112.355 127.998 109.572V101.125ZM160.713 109.621H164.741V115.31H160.713V123H153.657V115.31H139.082L138.765 110.866L153.584 87.4531H160.713V109.621ZM145.796 109.621H153.657V97.0723L153.193 97.8779L145.796 109.621Z" fill="#00199F"/>
</g>
<defs>
<clipPath id="clip0_780_383">
<rect width="255" height="170" fill="white"/>
</clipPath>
</defs>
</svg>
