<svg width="30" height="30" viewBox="0 0 30 30" fill="none" xmlns="http://www.w3.org/2000/svg">
<rect width="30" height="30" rx="12" fill="#F0F5FF"/>
<g clip-path="url(#clip0)">
<path d="M22.0762 18.3212H20.8777V12.8773C20.8777 9.63619 18.2406 7 15.0004 7C11.7594 7 9.12317 9.63619 9.12317 12.8773V18.3212H7.92466C7.41423 18.3212 7 18.7363 7 19.2459C7 19.7555 7.41423 20.1706 7.92466 20.1706H11.9613C12.0731 21.7504 13.3938 23.0009 15.0004 23.0009C16.6071 23.0009 17.9287 21.7504 18.0396 20.1706H22.0762C22.5858 20.1706 23.0009 19.7563 23.0009 19.2459C23.0009 18.7355 22.5858 18.3212 22.0762 18.3212ZM16.179 20.1697C16.0767 20.7278 15.5871 21.1515 15.0004 21.1515C14.4137 21.1515 13.9241 20.7278 13.8219 20.1697H16.179ZM19.0292 12.8773V18.3212H10.9716V12.8773C10.9716 10.6562 12.7793 8.84845 15.0004 8.84845C17.2215 8.84845 19.0292 10.6562 19.0292 12.8773Z" fill="#00199F"/>
</g>
<defs>
<clipPath id="clip0">
<rect width="16" height="16" fill="white" transform="translate(7 7)"/>
</clipPath>
</defs>
</svg>
